<?xml version="1.0" encoding="UTF-8" standalone="no"?>
<!-- Created with Inkscape (http://www.inkscape.org/) -->

<svg
   xmlns:dc="http://purl.org/dc/elements/1.1/"
   xmlns:cc="http://creativecommons.org/ns#"
   xmlns:rdf="http://www.w3.org/1999/02/22-rdf-syntax-ns#"
   xmlns:svg="http://www.w3.org/2000/svg"
   xmlns="http://www.w3.org/2000/svg"
   xmlns:sodipodi="http://sodipodi.sourceforge.net/DTD/sodipodi-0.dtd"
   xmlns:inkscape="http://www.inkscape.org/namespaces/inkscape"
   width="27px"
   height="27px"
   
   viewBox="0 0 799.99998 798.98395"
   id="svg2"
   version="1.1"
   inkscape:version="0.91 r13725"
   sodipodi:docname="Dharmachakra.svg">
  <defs
     id="defs4">
    <clipPath
       id="id0">
      <path
         inkscape:connector-curvature="0"
         d="m 6500000,15909400 801930,0 c 189250,-89820 580580,-490790 580580,-490790 1077790,-1491570 -269440,-1504410 -269440,-1504410 l -1113070,0 -1113070,0 c 0,0 -1347230,12840 -266240,1504410 0,0 388130,400970 577380,490790 l 801930,0 z"
         id="path7" />
    </clipPath>
  </defs>
  <sodipodi:namedview
     id="base"
     pagecolor="#ffffff"
     bordercolor="#666666"
     borderopacity="1.0"
     inkscape:pageopacity="0.0"
     inkscape:pageshadow="2"
     inkscape:zoom="0.83856502"
     inkscape:cx="399.99999"
     inkscape:cy="399.49198"
     inkscape:document-units="px"
     inkscape:current-layer="layer1"
     showgrid="false"
     fit-margin-top="0"
     fit-margin-left="0"
     fit-margin-right="0"
     fit-margin-bottom="0"
     inkscape:window-width="1600"
     inkscape:window-height="837"
     inkscape:window-x="-8"
     inkscape:window-y="-8"
     inkscape:window-maximized="1" />
  <metadata
     id="metadata7">
    <rdf:RDF>
      <cc:Work
         rdf:about="">
        <dc:format>image/svg+xml</dc:format>
        <dc:type
           rdf:resource="http://purl.org/dc/dcmitype/StillImage" />
        <dc:title></dc:title>
      </cc:Work>
    </rdf:RDF>
  </metadata>
  <g
     inkscape:label="Layer 1"
     inkscape:groupmode="layer"
     id="layer1"
     transform="translate(-157.30481,2154.3664)">
    <g
       id="g4591">
      <path
         inkscape:connector-curvature="0"
         style="fill:#ffb700;fill-rule:nonzero;stroke:#1f1a17;stroke-width:7.23568296;fill-opacity:1"
         id="_153219752"
         d="m 441.00496,-1900.8364 -77.67123,-183.5034 c -8.99871,-21.3589 1.02553,-45.9716 22.3844,-54.9703 21.35571,-8.9987 45.9716,1.0255 54.9703,22.3844 l 76.08862,179.7716 c 13.03436,-2.8835 26.59731,-4.4155 40.54325,-4.4187 l 0,-0.1646 0.0317,0 0.0601,0 0,0.1646 c 6.8337,0 13.58194,0.3862 20.2194,1.0984 l 75.91454,-184.2472 c 8.81512,-21.4475 33.3582,-31.6902 54.8057,-22.875 21.45067,8.8151 31.69014,33.3582 22.87818,54.8057 l -74.18949,180.0564 c 11.7113,7.4288 22.53317,16.1141 32.25672,25.882 4.74782,4.7731 9.23926,9.8185 13.44583,15.0791 l 183.51921,-77.6744 c 21.35887,-8.9987 45.97159,1.0255 54.9703,22.3844 8.99871,21.3557 -1.02553,45.9716 -22.38441,54.9703 l -179.79691,76.0981 c 2.9025,13.0597 4.4408,26.6226 4.44396,40.5369 l 0.1646,0 0,0.029 0,0.06 -0.1646,0 c -0.003,6.6913 -0.36083,13.3066 -1.04135,19.8238 l 185.20627,76.3102 c 21.4475,8.8151 31.69013,33.3582 22.87501,54.8057 -8.81513,21.4506 -33.35821,31.6901 -54.80571,22.8782 l -180.53441,-74.3858 c -7.39711,11.8949 -16.07613,22.9004 -25.8788,32.798 -4.64021,4.6877 -9.53996,9.1158 -14.66128,13.2907 l 76.87992,184.51 c 8.90692,21.4475 -1.26292,46.0633 -22.71359,54.9703 -21.4475,8.9037 -46.06338,-1.263 -54.9703,-22.7136 l -74.92698,-179.8286 c -13.33822,3.0291 -27.23352,4.637 -41.54029,4.6402 l 0,0.1646 -0.0317,0 -0.0601,0 0,-0.1646 c -6.74824,0 -13.41419,-0.3703 -19.96618,-1.0667 l -74.98396,184.051 c -8.7265,21.5393 -33.26959,31.9339 -54.81205,23.2074 -21.53929,-8.7265 -31.93386,-33.2696 -23.20736,-54.8121 l 73.41402,-180.1989 c -11.73979,-7.4604 -22.59015,-16.1964 -32.32952,-26.0307 -4.7225,-4.7637 -9.18229,-9.7932 -13.36987,-15.0506 l -183.75976,76.9242 c -21.45067,8.9069 -46.06338,-1.2629 -54.9703,-22.7136 -8.90692,-21.4475 1.26292,-46.0634 22.71359,-54.9703 l 179.70828,-75.2277 c -2.95314,-13.2717 -4.51676,-27.0689 -4.51993,-41.2395 l -0.16459,0 0,-0.032 0,-0.06 0.16459,0 c 0.003,-6.7198 0.37033,-13.3572 1.06985,-19.9029 l -185.07016,-75.0473 c -21.5393,-8.7265 -31.93387,-33.2696 -23.20737,-54.812 8.7265,-21.5393 33.26959,-31.9339 54.81204,-23.2074 l 181.18328,73.4742 c 7.28949,-11.5309 15.80709,-22.2135 25.39136,-31.8453 4.93141,-4.9567 10.15085,-9.6317 15.61718,-14.006 z" />
      <path
         inkscape:connector-curvature="0"
         style="fill:#ffb700;fill-rule:nonzero;stroke:#1f1a17;stroke-width:7.23568296;fill-opacity:1"
         id="_164281512"
         d="m 557.38044,-1371.3275 0,0.1899 -0.0285,0 -0.0601,0 0,-0.1899 c -106.08221,-0.016 -202.13068,-43.0248 -271.56602,-112.457 -69.44799,-69.4448 -112.46644,-165.5123 -112.47594,-271.6166 l -0.18991,0 0,-0.028 0,-0.06 0.18991,0 c 0.0158,-105.9999 43.09442,-201.792 112.64687,-271.0564 69.49231,-69.2106 165.50279,-111.96 271.42674,-111.9695 l 0,-0.19 0.0285,0 0.0601,0 0,0.19 c 105.90179,0.016 201.89012,42.7557 271.37294,111.9473 69.5746,69.2739 112.65952,165.085 112.66902,271.1102 l 0.18991,0 0,0.029 0,0.06 -0.18991,0 c -0.0158,106.0822 -43.02478,202.1307 -112.45695,271.5661 -69.44484,69.4479 -165.50913,112.4664 -271.61666,112.4759 z m -0.0285,-74.1863 0.0317,0 0,0.2089 c 85.30256,-0.01 162.80603,-34.8522 219.05191,-91.1076 56.23323,-56.2364 91.06959,-133.7145 91.08542,-218.9918 l -0.20891,0 0,-0.07 0,-0.029 0.20891,0 c -0.006,-85.3912 -34.77306,-162.6161 -90.89867,-218.5012 -56.18891,-55.9547 -133.73353,-90.522 -219.20701,-90.5346 l 0,0.2089 -0.0633,0 -0.0317,0 0,-0.2089 c -85.49247,0 -163.05925,34.5863 -219.25765,90.5536 -56.10662,55.8756 -90.86385,133.0815 -90.87968,218.4474 l 0.20891,0 0,0.063 0,0.032 -0.20891,0 c 0.006,85.3026 34.85219,162.8029 91.10757,219.0551 56.23639,56.2332 133.71454,91.0696 218.99811,91.0823 l 0,-0.2089 0.0633,0 z" />
      <g
         transform="matrix(3.1652157e-4,0,0,3.1652157e-4,-1500.0383,-2560.3155)"
         id="g502"
         style="fill-rule:evenodd">
        <path
           inkscape:connector-curvature="0"
           style="fill:#ffb700;fill-rule:nonzero;stroke:#1f1a17;stroke-width:22860"
           id="_164272280"
           d="m 6500000,2868490 100,0 0,520 c 89580,-10 170260,-36460 228580,-95360 58310,-58890 94190,-140420 94210,-230550 l -520,0 0,-190 0,-90 520,0 c -10,-88540 -35900,-169270 -94270,-227910 -58210,-58480 -138830,-94870 -228430,-94890 l 0,520 -190,0 -100,0 0,-520 c -89660,10 -170350,36420 -228580,94960 -58310,58600 -94190,139280 -94210,227740 l 520,0 0,190 0,100 -520,0 c 10,90220 35910,171790 94270,230700 58280,58840 138920,95270 228430,95300 l 0,-520 190,0 z" />
        <path
           inkscape:connector-curvature="0"
           style="fill:#ffb700;stroke:#1f1a17;stroke-width:22860"
           id="_164287128"
           d="m 6500000,2748200 c 112270,0 205290,-93020 205290,-205290 0,-112270 -93020,-205290 -205290,-205290 -112270,0 -205290,93020 -205290,205290 0,112270 93020,205290 205290,205290 z" />
      </g>
    </g>
  </g>
</svg>
